<?xml version="1.0" encoding="utf-8"?>
<!DOCTYPE svg>
<svg width="113" height="55" viewBox="0 0 113 55" fill="none" xmlns="http://www.w3.org/2000/svg">
<g clip-path="url(#clip0_49_238)">
<path fill-rule="evenodd" clip-rule="evenodd" d="M5.12 15.22H22.7C24.09 15.22 25.23 16.36 25.23 17.75V35.33C25.23 36.72 24.09 37.85 22.7 37.85H5.12C3.73 37.85 2.59 36.72 2.59 35.33V17.74C2.59 16.36 3.73 15.22 5.12 15.22Z" fill="#004678"/>
<path fill-rule="evenodd" clip-rule="evenodd" d="M17.92 32.04H15.22C15.14 32.04 15.08 31.97 15.08 31.9V31.23L13.04 33.27C12.99 33.32 12.9 33.32 12.84 33.27L10.93 31.36C10.88 31.31 10.88 31.22 10.93 31.16L11.4 30.68H8.54C8.46 30.68 8.4 30.62 8.4 30.54V27.84C8.4 27.76 8.47 27.7 8.54 27.7H9.21L7.18 25.67C7.12 25.61 7.12 25.52 7.18 25.47L9.08 23.57C9.13 23.51 9.22 23.51 9.28 23.57L9.75 24.04V21.17C9.75 21.09 9.81 21.03 9.89 21.03H12.59C12.67 21.03 12.73 21.1 12.73 21.17V21.84L14.77 19.81C14.82 19.75 14.91 19.75 14.97 19.81L16.88 21.71C16.93 21.77 16.93 21.85 16.88 21.91L16.4 22.38H19.27C19.35 22.38 19.41 22.45 19.41 22.52V25.22C19.41 25.3 19.34 25.36 19.27 25.36H18.6L20.63 27.39C20.69 27.44 20.69 27.53 20.63 27.59L18.73 29.5C18.68 29.55 18.59 29.55 18.53 29.5L18.06 29.03V31.9C18.06 31.98 17.99 32.04 17.92 32.04ZM17.57 24.52L16.52 25.36H15.22C15.14 25.36 15.08 25.29 15.08 25.22V22.52L14.92 23.86L14 24.78C13.95 24.84 13.86 24.84 13.8 24.78L12.73 23.71L11.89 22.87L12.73 23.92V25.22C12.73 25.3 12.67 25.36 12.59 25.36H9.9L11.24 25.51L12.16 26.43C12.21 26.48 12.21 26.57 12.16 26.63L10.25 28.53L11.31 27.69H12.61C12.69 27.69 12.75 27.76 12.75 27.83V30.53L12.91 29.19L13.83 28.27C13.88 28.22 13.97 28.22 14.03 28.27L15.94 30.18L15.1 29.13V27.83C15.1 27.75 15.16 27.69 15.24 27.69H17.94H17.95L16.61 27.54L15.69 26.62C15.64 26.56 15.64 26.47 15.69 26.42L16.76 25.35L17.57 24.52Z" fill="#FEFEFE"/>
<path d="M37.3 24.28C37.33 25.33 36.5 26.09 35.45 26.09H32.68V22.54H35.47C36.45 22.54 37.27 23.23 37.3 24.28ZM105.97 17.74V28.33C105.97 28.51 105.81 28.64 105.63 28.64H103.41C103.23 28.64 103.06 28.51 103.06 28.33V17.74H99.58C99.4 17.74 99.27 17.58 99.27 17.4V15.59C99.27 15.41 99.39 15.24 99.58 15.24C102.88 15.24 106.19 15.24 109.49 15.24C109.67 15.24 109.8 15.4 109.8 15.59V17.4C109.8 17.58 109.67 17.74 109.49 17.74H105.97ZM50.46 28.19V26.44C50.46 26.31 50.36 26.11 50.13 26.11H44.94C44.63 26.11 44 25.89 44 25.09V22.54H49.52C49.75 22.54 49.85 22.34 49.85 22.23V20.44C49.85 20.25 49.72 20.11 49.49 20.11H44V18.68C44 18.07 44.5 17.74 44.94 17.74H50.12C50.36 17.74 50.46 17.56 50.46 17.42V15.56C50.46 15.38 50.32 15.24 50.09 15.24L44.7 15.21C42.68 15.2 41.09 16.9 41.09 18.77V25.11C41.09 27.06 42.73 28.63 44.62 28.63H50.12C50.32 28.63 50.45 28.49 50.45 28.3C50.46 28.28 50.46 28.23 50.46 28.19ZM72.45 21.51V21.41C72.86 21.16 73.2 20.83 73.48 20.44C73.75 20.04 73.95 19.57 74.08 19.03L74.96 15.62C74.99 15.47 74.89 15.24 74.64 15.24H72.55C72.48 15.24 72.41 15.25 72.33 15.28C72.25 15.31 72.2 15.38 72.17 15.51L71.31 18.72C71.21 19.11 71.07 19.43 70.9 19.66C70.74 19.89 70.55 20.07 70.34 20.18C70.14 20.29 69.93 20.36 69.72 20.4C69.5 20.43 69.31 20.45 69.12 20.45H67.61V15.57C67.61 15.36 67.44 15.25 67.3 15.25H65.06C64.87 15.25 64.72 15.39 64.72 15.56V28.34C64.72 28.52 64.88 28.65 65.06 28.65H67.28C67.46 28.65 67.62 28.53 67.62 28.34V22.67H69.17C69.61 22.66 69.99 22.7 70.3 22.79C70.6 22.88 70.86 23.03 71.06 23.27C71.26 23.5 71.43 23.83 71.56 24.27L72.74 28.41C72.8 28.58 72.92 28.65 73.04 28.65H75.26C75.54 28.66 75.62 28.39 75.59 28.26L74.41 23.83C74.34 23.54 74.25 23.28 74.17 23.05C74.08 22.81 73.97 22.6 73.83 22.42C73.7 22.23 73.52 22.06 73.3 21.91C73.05 21.75 72.77 21.62 72.45 21.51ZM80.49 23.48L81.22 21.06L81.95 18.34H82.06L82.77 21.06L83.5 23.48H80.49ZM84.17 25.84L84.92 28.33C84.99 28.56 85.1 28.64 85.25 28.64H87.67C87.89 28.63 88.04 28.44 87.98 28.22L84.02 16.29C83.83 15.71 83.56 15.24 82.87 15.24L81.16 15.25C80.82 15.22 80.52 15.34 80.29 15.65C80.17 15.81 80.07 16.02 79.99 16.29L76.03 28.21C75.94 28.47 76.16 28.64 76.34 28.64H78.66C78.74 28.64 78.9 28.65 78.99 28.44C79.01 28.39 79.04 28.33 79.05 28.28L79.8 25.85H84.17V25.84ZM96.08 19.5C96.07 20.44 95.33 21.26 94.33 21.26L91.73 21.25V17.74H94.21C95.33 17.71 96.08 18.57 96.08 19.5ZM91.72 28.23V23.75H94.89C97.09 23.75 99.14 21.96 99.11 19.42C99.11 18.81 98.95 18.24 98.73 17.74C98.21 16.56 97.24 15.78 96.11 15.43C95.65 15.29 95.14 15.25 94.64 15.24H89.8C89.28 15.24 88.85 15.59 88.83 16.16C88.82 16.24 88.82 16.32 88.82 16.41V28.31C88.82 28.49 88.96 28.63 89.15 28.64H91.41C91.53 28.64 91.64 28.57 91.69 28.46C91.71 28.4 91.72 28.32 91.72 28.23ZM30.72 28.64H35.74C38.22 28.73 40.24 27 40.32 24.43C40.33 24.21 40.34 23.95 40.28 23.66C39.83 21.55 38.18 20.11 36.06 20.11H32.68V17.73H38.45C38.67 17.73 38.8 17.57 38.8 17.36V15.66C38.81 15.43 38.71 15.23 38.45 15.24H30.79C30 15.24 29.78 15.82 29.78 16.18V27.7C29.78 28.21 30.18 28.64 30.72 28.64ZM53.63 16.53L53.46 19.43C53.4 20.42 53.34 21.28 53.27 22.02C53.17 23.22 53.04 26.12 51.48 26.12C51.46 26.12 51.44 26.12 51.41 26.12C51.27 26.12 51.09 26.24 51.09 26.43V28.2C51.09 28.24 51.09 28.27 51.09 28.3C51.09 28.5 51.23 28.65 51.42 28.65C51.45 28.65 51.53 28.65 51.56 28.65C52.74 28.64 53.78 28.52 54.67 27.17C54.95 26.74 55.19 26.27 55.37 25.73C55.55 25.19 55.69 24.59 55.79 23.92C55.89 23.25 55.98 22.52 56.05 21.72C56.11 20.92 56.17 20.05 56.24 19.11L56.32 17.77H60.04V28.32C60.04 28.5 60.19 28.66 60.38 28.65H62.6C62.83 28.65 62.95 28.49 62.95 28.3V16.19C62.95 15.69 62.53 15.25 61.94 15.25H54.61C54.05 15.25 53.71 15.74 53.69 16.15C53.66 16.26 53.64 16.38 53.63 16.53Z" fill="#004678"/>
<path fill-rule="evenodd" clip-rule="evenodd" d="M34 33.1901L33.14 34.6501L31.5 37.3201C31.44 37.4101 31.39 37.4801 31.34 37.5401C31.29 37.5901 31.24 37.6401 31.19 37.6701C31.14 37.7001 31.08 37.7201 31.01 37.7301C30.94 37.7401 30.86 37.7501 30.76 37.7501H30.37C30.11 37.7501 29.94 37.6801 29.86 37.5701C29.77 37.4501 29.74 37.2901 29.74 37.0801V31.1101C29.74 30.9901 29.81 30.9301 29.94 30.9301H30.98C31.07 30.9301 31.13 30.9401 31.15 30.9701C31.18 31.0001 31.18 31.0401 31.18 31.1101V35.4901H31.24L32.07 34.1301L33.75 31.3701C33.81 31.2801 33.86 31.2001 33.91 31.1401C33.96 31.0801 34 31.0401 34.05 31.0001C34.1 30.9701 34.16 30.9501 34.23 30.9401C34.3 30.9301 34.38 30.9301 34.47 30.9301H34.87C35.11 30.9301 35.28 30.9801 35.37 31.0801C35.46 31.1801 35.51 31.3501 35.51 31.6101V37.5701C35.51 37.6901 35.44 37.7601 35.31 37.7601H34.27C34.18 37.7601 34.12 37.7501 34.09 37.7201C34.06 37.6901 34.05 37.6401 34.05 37.5701V33.2001H34V33.1901ZM38.29 37.5501C38.29 37.6401 38.28 37.6901 38.24 37.7101C38.21 37.7401 38.15 37.7501 38.06 37.7501H37.08C36.94 37.7501 36.86 37.6801 36.86 37.5501V32.8201C36.86 32.7001 36.93 32.6301 37.08 32.6301H38.06C38.15 32.6301 38.21 32.6401 38.24 32.6701C38.27 32.6901 38.29 32.7401 38.29 32.8201V34.4801H40.11V32.8201C40.11 32.7001 40.18 32.6301 40.33 32.6301H41.31C41.4 32.6301 41.46 32.6401 41.49 32.6701C41.52 32.6901 41.53 32.7401 41.53 32.8201V37.5501C41.53 37.6401 41.52 37.6901 41.49 37.7101C41.46 37.7401 41.4 37.7501 41.31 37.7501H40.33C40.19 37.7501 40.11 37.6801 40.11 37.5501V35.6001H38.29V37.5501ZM45.23 33.7801V37.5501C45.23 37.6401 45.22 37.6901 45.18 37.7101C45.15 37.7401 45.09 37.7501 45 37.7501H44.03C43.89 37.7501 43.81 37.6801 43.81 37.5501V33.7801H42.43C42.3 33.7801 42.23 33.7101 42.23 33.5601V32.8501C42.23 32.7601 42.24 32.7001 42.26 32.6701C42.29 32.6401 42.34 32.6201 42.42 32.6201H46.63C46.71 32.6201 46.76 32.6401 46.79 32.6701C46.82 32.7001 46.83 32.7601 46.83 32.8501V33.5601C46.83 33.7001 46.76 33.7801 46.63 33.7801H45.23ZM49.5 32.5101C50.26 32.5101 50.83 32.7001 51.21 33.0801C51.59 33.4601 51.78 34.0001 51.78 34.7101C51.78 35.0501 51.71 35.2801 51.58 35.4001C51.45 35.5201 51.27 35.5801 51.04 35.5801H48.55C48.56 35.7901 48.6 35.9601 48.65 36.1001C48.71 36.2401 48.79 36.3501 48.9 36.4301C49 36.5201 49.12 36.5701 49.27 36.6101C49.41 36.6401 49.56 36.6601 49.72 36.6601C49.91 36.6601 50.1 36.6301 50.3 36.5901C50.49 36.5401 50.67 36.4901 50.84 36.4101C50.92 36.3801 50.97 36.3801 51 36.3801C51.03 36.3901 51.05 36.4201 51.08 36.4701L51.39 37.1701C51.42 37.2301 51.42 37.2701 51.4 37.3101C51.39 37.3401 51.35 37.3801 51.3 37.4101C51.06 37.5701 50.78 37.6801 50.46 37.7401C50.15 37.8101 49.85 37.8401 49.58 37.8401C48.73 37.8401 48.1 37.6301 47.69 37.2101C47.28 36.7901 47.08 36.1201 47.08 35.2101C47.08 34.7801 47.13 34.4001 47.25 34.0601C47.36 33.7301 47.52 33.4401 47.73 33.2101C47.94 32.9701 48.19 32.8001 48.49 32.6801C48.8 32.5701 49.13 32.5101 49.5 32.5101ZM49.53 33.6801C49.26 33.6801 49.05 33.7701 48.88 33.9601C48.72 34.1501 48.62 34.3901 48.59 34.6801H50.41C50.41 34.5401 50.4 34.4101 50.36 34.2801C50.33 34.1601 50.29 34.0501 50.22 33.9701C50.15 33.8801 50.06 33.8101 49.96 33.7601C49.85 33.7001 49.7 33.6801 49.53 33.6801ZM54.22 39.5701C54.22 39.6401 54.21 39.6901 54.19 39.7101C54.17 39.7301 54.11 39.7401 54.02 39.7401H53.02C52.95 39.7401 52.9 39.7301 52.86 39.7101C52.83 39.6901 52.81 39.6401 52.81 39.5701V33.2201C52.81 33.1501 52.82 33.0901 52.84 33.0501C52.86 33.0001 52.91 32.9601 53 32.9201C53.31 32.7801 53.66 32.6701 54.05 32.6101C54.44 32.5601 54.81 32.5201 55.16 32.5201C55.62 32.5201 56.01 32.5901 56.32 32.7301C56.63 32.8701 56.89 33.0601 57.08 33.2901C57.27 33.5301 57.41 33.8101 57.49 34.1301C57.58 34.4601 57.62 34.8001 57.62 35.1701C57.62 35.5401 57.57 35.8801 57.48 36.2001C57.39 36.5201 57.24 36.8001 57.06 37.0401C56.87 37.2801 56.63 37.4701 56.34 37.6101C56.05 37.7501 55.71 37.8201 55.32 37.8201C55.12 37.8201 54.94 37.8101 54.78 37.7901C54.62 37.7801 54.43 37.7401 54.22 37.7001V39.5701ZM56.14 35.1601C56.14 34.8901 56.11 34.6701 56.07 34.4901C56.02 34.3101 55.94 34.1601 55.83 34.0501C55.73 33.9401 55.61 33.8601 55.46 33.8101C55.31 33.7701 55.15 33.7401 54.96 33.7401C54.87 33.7401 54.75 33.7501 54.6 33.7701C54.46 33.7901 54.33 33.8101 54.21 33.8401V36.5001C54.38 36.5501 54.53 36.5701 54.67 36.5901C54.8 36.6001 54.92 36.6101 55.03 36.6101C55.35 36.6101 55.62 36.5001 55.82 36.2801C56.04 36.0701 56.14 35.6901 56.14 35.1601ZM60.1 37.5501C60.1 37.6401 60.09 37.6901 60.05 37.7101C60.02 37.7401 59.96 37.7501 59.87 37.7501H58.89C58.75 37.7501 58.67 37.6801 58.67 37.5501V32.8201C58.67 32.7001 58.74 32.6301 58.89 32.6301H59.87C59.96 32.6301 60.02 32.6401 60.05 32.6701C60.08 32.6901 60.1 32.7401 60.1 32.8201V34.4801H61.92V32.8201C61.92 32.7001 61.99 32.6301 62.14 32.6301H63.12C63.21 32.6301 63.27 32.6401 63.3 32.6701C63.33 32.6901 63.34 32.7401 63.34 32.8201V37.5501C63.34 37.6401 63.33 37.6901 63.3 37.7101C63.27 37.7401 63.21 37.7501 63.12 37.7501H62.14C62 37.7501 61.92 37.6801 61.92 37.5501V35.6001H60.1V37.5501ZM66.81 32.5101C67.57 32.5101 68.14 32.7001 68.52 33.0801C68.9 33.4601 69.09 34.0001 69.09 34.7101C69.09 35.0501 69.02 35.2801 68.9 35.4001C68.77 35.5201 68.59 35.5801 68.36 35.5801H65.87C65.88 35.7901 65.91 35.9601 65.97 36.1001C66.04 36.2401 66.12 36.3501 66.22 36.4301C66.32 36.5201 66.45 36.5701 66.59 36.6101C66.73 36.6401 66.88 36.6601 67.04 36.6601C67.23 36.6601 67.42 36.6301 67.62 36.5901C67.82 36.5401 68 36.4901 68.16 36.4101C68.24 36.3801 68.3 36.3801 68.32 36.3801C68.35 36.3901 68.38 36.4201 68.41 36.4701L68.72 37.1701C68.75 37.2301 68.75 37.2701 68.74 37.3101C68.72 37.3401 68.69 37.3801 68.64 37.4101C68.4 37.5701 68.12 37.6801 67.8 37.7401C67.48 37.8101 67.18 37.8401 66.92 37.8401C66.07 37.8401 65.43 37.6301 65.03 37.2101C64.62 36.7901 64.41 36.1201 64.41 35.2101C64.41 34.7801 64.47 34.4001 64.58 34.0601C64.7 33.7301 64.85 33.4401 65.07 33.2101C65.28 32.9701 65.53 32.8001 65.83 32.6801C66.11 32.5701 66.45 32.5101 66.81 32.5101ZM66.84 33.6801C66.57 33.6801 66.36 33.7701 66.19 33.9601C66.02 34.1501 65.92 34.3901 65.9 34.6801H67.73C67.73 34.5401 67.71 34.4101 67.68 34.2801C67.65 34.1601 67.6 34.0501 67.54 33.9701C67.47 33.8801 67.39 33.8101 67.28 33.7601C67.16 33.7001 67.01 33.6801 66.84 33.6801ZM72.58 33.7801V37.5501C72.58 37.6401 72.57 37.6901 72.53 37.7101C72.5 37.7401 72.44 37.7501 72.35 37.7501H71.38C71.24 37.7501 71.16 37.6801 71.16 37.5501V33.7801H69.78C69.65 33.7801 69.58 33.7101 69.58 33.5601V32.8501C69.58 32.7601 69.59 32.7001 69.61 32.6701C69.64 32.6401 69.69 32.6201 69.77 32.6201H73.98C74.06 32.6201 74.11 32.6401 74.14 32.6701C74.16 32.7001 74.17 32.7601 74.17 32.8501V33.5601C74.17 33.7001 74.11 33.7801 73.98 33.7801H72.58ZM80.61 37.5601C80.61 37.6301 80.6 37.6801 80.57 37.7101C80.55 37.7401 80.49 37.7501 80.4 37.7501H79.34C79.2 37.7501 79.13 37.6801 79.13 37.5601V32.2101H76.5V37.5601C76.5 37.6301 76.49 37.6801 76.46 37.7101C76.43 37.7401 76.37 37.7501 76.28 37.7501H75.21C75.07 37.7501 75.01 37.6801 75.01 37.5601V31.5901C75.01 31.3601 75.06 31.2001 75.15 31.0901C75.25 30.9901 75.41 30.9301 75.63 30.9301H79.98C80.22 30.9301 80.38 30.9801 80.47 31.0901C80.56 31.2001 80.6 31.3601 80.6 31.5901V37.5601H80.61ZM86.31 37.1101C86.31 37.2001 86.3 37.2701 86.28 37.3301C86.25 37.3901 86.2 37.4401 86.11 37.4901C85.96 37.5601 85.8 37.6201 85.63 37.6701C85.46 37.7201 85.28 37.7501 85.11 37.7701C84.93 37.8001 84.75 37.8201 84.57 37.8301C84.39 37.8401 84.22 37.8501 84.05 37.8501C83.61 37.8501 83.25 37.8101 82.96 37.7301C82.67 37.6501 82.44 37.5301 82.27 37.3801C82.09 37.2301 81.97 37.0601 81.9 36.8601C81.83 36.6601 81.8 36.4501 81.8 36.2201C81.8 35.9701 81.84 35.7401 81.92 35.5301C82 35.3201 82.14 35.1401 82.3 34.9801C82.47 34.8201 82.69 34.7101 82.94 34.6101C83.2 34.5201 83.5 34.4801 83.85 34.4801H84.92V34.3201C84.92 34.2301 84.91 34.1401 84.89 34.0601C84.87 33.9701 84.83 33.9001 84.77 33.8401C84.7 33.7701 84.62 33.7301 84.51 33.6901C84.4 33.6501 84.25 33.6301 84.07 33.6301C83.97 33.6301 83.86 33.6301 83.74 33.6401C83.62 33.6501 83.49 33.6601 83.37 33.6801C83.25 33.6901 83.13 33.7101 83.01 33.7401C82.89 33.7601 82.79 33.7901 82.7 33.8101C82.61 33.8301 82.56 33.8301 82.53 33.8101C82.5 33.7901 82.47 33.7501 82.46 33.6901L82.3 33.0001C82.28 32.9301 82.28 32.8801 82.3 32.8501C82.31 32.8201 82.35 32.8001 82.4 32.7801C82.69 32.6801 83 32.6001 83.32 32.5601C83.64 32.5101 83.96 32.4901 84.28 32.4901C84.99 32.4901 85.5 32.6401 85.83 32.9401C86.16 33.2401 86.33 33.6901 86.33 34.2801V37.1101H86.31ZM84.89 35.4301H84.12C84.03 35.4301 83.93 35.4401 83.83 35.4501C83.73 35.4601 83.63 35.5001 83.54 35.5501C83.45 35.6001 83.38 35.6701 83.32 35.7601C83.26 35.8501 83.23 35.9701 83.23 36.1301C83.23 36.3601 83.31 36.5201 83.46 36.6101C83.61 36.7001 83.82 36.7501 84.08 36.7501C84.12 36.7501 84.17 36.7501 84.23 36.7401C84.3 36.7401 84.37 36.7301 84.44 36.7201C84.52 36.7101 84.59 36.7001 84.67 36.6801C84.75 36.6701 84.82 36.6401 84.89 36.6201V35.4301ZM89 39.5701C89 39.6401 88.99 39.6901 88.96 39.7101C88.94 39.7301 88.88 39.7401 88.8 39.7401H87.79C87.72 39.7401 87.67 39.7301 87.63 39.7101C87.6 39.6901 87.58 39.6401 87.58 39.5701V33.2201C87.58 33.1501 87.59 33.0901 87.61 33.0501C87.63 33.0001 87.69 32.9601 87.77 32.9201C88.08 32.7801 88.42 32.6701 88.81 32.6101C89.2 32.5601 89.57 32.5201 89.92 32.5201C90.38 32.5201 90.77 32.5901 91.08 32.7301C91.39 32.8701 91.65 33.0601 91.84 33.2901C92.03 33.5301 92.17 33.8101 92.25 34.1301C92.34 34.4601 92.38 34.8001 92.38 35.1701C92.38 35.5401 92.33 35.8801 92.24 36.2001C92.15 36.5201 92 36.8001 91.82 37.0401C91.63 37.2801 91.39 37.4701 91.1 37.6101C90.81 37.7501 90.47 37.8201 90.08 37.8201C89.88 37.8201 89.71 37.8101 89.54 37.7901C89.38 37.7801 89.19 37.7401 88.98 37.7001V39.5701H89ZM90.91 35.1601C90.91 34.8901 90.88 34.6701 90.83 34.4901C90.78 34.3101 90.7 34.1601 90.6 34.0501C90.5 33.9401 90.37 33.8601 90.23 33.8101C90.08 33.7701 89.92 33.7401 89.73 33.7401C89.64 33.7401 89.52 33.7501 89.38 33.7701C89.23 33.7901 89.1 33.8101 88.99 33.8401V36.5001C89.16 36.5501 89.31 36.5701 89.44 36.5901C89.58 36.6001 89.7 36.6101 89.8 36.6101C90.13 36.6101 90.39 36.5001 90.6 36.2801C90.81 36.0701 90.91 35.6901 90.91 35.1601ZM98.19 35.1601C98.19 36.0201 97.99 36.6801 97.57 37.1501C97.16 37.6101 96.54 37.8501 95.7 37.8501C94.86 37.8501 94.23 37.6101 93.85 37.1501C93.46 36.6801 93.27 36.0201 93.27 35.1801C93.27 34.7701 93.32 34.3901 93.44 34.0501C93.55 33.7201 93.71 33.4301 93.92 33.2101C94.13 32.9801 94.39 32.8001 94.69 32.6801C94.99 32.5601 95.33 32.5001 95.72 32.5001C96.54 32.5001 97.15 32.7401 97.57 33.2101C97.98 33.6801 98.19 34.3301 98.19 35.1601ZM96.71 35.2001C96.71 34.9801 96.7 34.7701 96.66 34.6001C96.63 34.4201 96.57 34.2601 96.5 34.1301C96.42 34.0001 96.32 33.9001 96.2 33.8201C96.08 33.7501 95.92 33.7101 95.74 33.7101C95.39 33.7101 95.14 33.8401 94.97 34.1001C94.81 34.3701 94.72 34.7201 94.72 35.1701C94.72 35.6601 94.8 36.0301 94.95 36.2801C95.1 36.5401 95.36 36.6601 95.7 36.6601C95.88 36.6601 96.03 36.6201 96.16 36.5501C96.28 36.4701 96.39 36.3701 96.47 36.2401C96.56 36.1101 96.61 35.9501 96.65 35.7801C96.7 35.6001 96.71 35.4101 96.71 35.2001ZM103.21 32.6301C103.44 32.6301 103.59 32.6801 103.67 32.7701C103.76 32.8601 103.79 33.0101 103.79 33.2201V37.5501C103.79 37.6301 103.78 37.6801 103.74 37.7001C103.71 37.7301 103.65 37.7401 103.56 37.7401H102.58C102.49 37.7401 102.43 37.7201 102.4 37.6901C102.37 37.6601 102.35 37.6101 102.35 37.5401V33.7701H101.15L101.12 34.2701C101.09 34.8401 101.04 35.3201 101 35.7401C100.95 36.1501 100.86 36.4901 100.73 36.7901C100.61 37.0801 100.44 37.3101 100.21 37.4901C99.98 37.6701 99.68 37.8201 99.31 37.9401C99.22 37.9701 99.15 37.9801 99.11 37.9501C99.07 37.9301 99.04 37.8801 99.01 37.8201L98.75 37.1601C98.72 37.0701 98.7 37.0201 98.72 36.9801C98.73 36.9501 98.77 36.9101 98.86 36.8601C99.04 36.7801 99.18 36.6901 99.29 36.6001C99.39 36.5001 99.49 36.3601 99.55 36.1801C99.62 36.0001 99.67 35.7501 99.71 35.4501C99.75 35.1501 99.78 34.7501 99.81 34.2501L99.88 33.1901C99.89 32.9801 99.95 32.8301 100.04 32.7401C100.13 32.6501 100.28 32.6101 100.49 32.6101H103.21V32.6301ZM105.67 37.7501C105.42 37.7501 105.25 37.7001 105.17 37.6001C105.09 37.5001 105.06 37.3601 105.06 37.1801V32.8201C105.06 32.7001 105.13 32.6301 105.27 32.6301H106.25C106.34 32.6301 106.4 32.6401 106.43 32.6701C106.46 32.6901 106.47 32.7401 106.47 32.8201V34.2301H107.68C108.15 34.2301 108.52 34.3001 108.81 34.4301C109.08 34.5601 109.29 34.7201 109.44 34.9101C109.58 35.0901 109.67 35.2901 109.7 35.4901C109.74 35.6901 109.76 35.8501 109.76 35.9801C109.76 36.2401 109.71 36.4701 109.61 36.6801C109.51 36.9001 109.38 37.0801 109.21 37.2401C109.03 37.4001 108.83 37.5201 108.6 37.6101C108.36 37.7001 108.11 37.7501 107.84 37.7501H105.67ZM108.3 35.9601C108.3 35.7801 108.24 35.6301 108.13 35.5001C108.02 35.3701 107.85 35.3101 107.62 35.3101H106.47V36.6301H107.61C107.75 36.6301 107.87 36.6101 107.95 36.5601C108.04 36.5101 108.11 36.4601 108.17 36.3901C108.22 36.3201 108.26 36.2501 108.28 36.1701C108.29 36.1001 108.3 36.0301 108.3 35.9601Z" fill="#004678"/>
</g>
<defs>
<clipPath id="clip0_49_238">
<rect width="112.4" height="55" fill="white"/>
</clipPath>
</defs>
</svg>
