<?xml version="1.0" encoding="iso-8859-1"?>
<!-- Generator: Adobe Illustrator 19.0.0, SVG Export Plug-In . SVG Version: 6.00 Build 0)  -->
<svg version="1.1" id="Layer_1" xmlns="http://www.w3.org/2000/svg" xmlns:xlink="http://www.w3.org/1999/xlink" x="0px" y="0px"
	 viewBox="0 0 512 512" style="enable-background:new 0 0 512 512;" xml:space="preserve">
<path style="fill:#EAFFFF;" d="M439.242,482.358H72.758c-23.812,0-43.116-19.304-43.116-43.116V72.758
	c0-23.812,19.304-43.116,43.116-43.116h366.484c23.812,0,43.116,19.304,43.116,43.116v366.484
	C482.358,463.054,463.054,482.358,439.242,482.358z"/>
<path style="fill:#A9D5BB;" d="M503.916,320.674v161.684c0,11.906-9.651,21.558-21.558,21.558H29.642
	c-11.906,0-21.558-9.651-21.558-21.558V377.263h129.347L503.916,320.674z"/>
<path style="fill:#FFFF81;" d="M191.326,99.705c0,50.601-41.02,91.621-91.621,91.621S8.084,150.306,8.084,99.705
	S49.105,8.084,99.705,8.084S191.326,49.105,191.326,99.705z"/>
<path style="fill:#FFF145;" d="M148.211,99.705c0,26.789-21.716,48.505-48.505,48.505S51.2,126.494,51.2,99.705
	S72.916,51.2,99.705,51.2S148.211,72.916,148.211,99.705z"/>
<path style="fill:#DBCB9C;" d="M471.579,29.642v97.011v118.568h-97.011v118.568H126.653V245.221h86.232V126.653h129.347V29.642
	H471.579z"/>
<path style="fill:#FF7039;" d="M374.568,245.221L374.568,245.221v43.116h-75.453v-21.558H115.874
	c-11.906,0-21.558-9.651-21.558-21.558l0,0c0-11.906,9.651-21.558,21.558-21.558H353.01
	C364.917,223.663,374.568,233.315,374.568,245.221z M482.358,105.095H202.105c-11.906,0-21.558,9.651-21.558,21.558l0,0
	c0,11.906,9.651,21.558,21.558,21.558h280.253c11.906,0,21.558-9.651,21.558-21.558l0,0
	C503.916,114.746,494.264,105.095,482.358,105.095z M482.358,8.084H331.453c-11.906,0-21.558,9.651-21.558,21.558l0,0
	c0,11.906,9.651,21.558,21.558,21.558h150.905c11.906,0,21.558-9.651,21.558-21.558l0,0C503.916,17.736,494.264,8.084,482.358,8.084
	z"/>
<path style="fill:#DDB961;" d="M299.116,385.347H72.758l0,0c0-23.812,19.304-43.116,43.116-43.116h183.242V385.347z"/>
<path style="fill:#9FBA41;" d="M503.916,238.035v104.197c0,23.812-19.304,43.116-43.116,43.116H288.337
	c-23.812,0-43.116-19.304-43.116-43.116v-39.523c0-25.796,20.912-46.708,46.708-46.708l0,0c14.448,0,27.362,6.563,35.929,16.867
	v-2.495c0-25.796,20.912-46.708,46.708-46.708l0,0c14.448,0,27.362,6.563,35.929,16.867v-2.495
	c0-25.796,20.912-46.708,46.708-46.708l0,0C483.004,191.326,503.916,212.239,503.916,238.035z"/>
<path style="fill:#7F932A;" d="M503.916,299.111v41.243c0,24.849-20.168,44.992-45.047,44.992H278.678
	c-0.204,0-0.407-0.001-0.611-0.004c-39.98-0.531-45.169-57.822-6.111-66.358c3.374-0.737,6.879-1.126,10.475-1.126l0,0
	c15.096,0,28.588,6.849,37.54,17.602v-2.604c0-26.919,21.849-48.742,48.802-48.742l0,0c15.096,0,28.588,6.849,37.54,17.602v-2.604
	c0-26.919,21.849-48.742,48.802-48.742l0,0C482.067,250.369,503.916,272.192,503.916,299.111z"/>
<path d="M0,293.726c0-4.465,3.62-8.084,8.084-8.084c10.823,0,20.517,4.935,26.947,12.671c6.431-7.736,16.124-12.671,26.947-12.671
	c4.465,0,8.084,3.62,8.084,8.084c0,4.465-3.62,8.084-8.084,8.084c-10.401,0-18.863,8.463-18.863,18.863
	c0,4.465-3.62,8.084-8.084,8.084s-8.084-3.62-8.084-8.084c0-10.401-8.463-18.863-18.863-18.863C3.62,301.811,0,298.191,0,293.726z
	 M113.179,424.871c0-4.465-3.62-8.084-8.084-8.084H51.2c-4.465,0-8.084,3.62-8.084,8.084s3.62,8.084,8.084,8.084h53.895
	C109.559,432.955,113.179,429.335,113.179,424.871z M213.243,495.832H83.896c-4.465,0-8.084,3.62-8.084,8.084S79.431,512,83.896,512
	h129.347c4.465,0,8.084-3.62,8.084-8.084S217.709,495.832,213.243,495.832z M463.495,165.457v-9.162h-35.032
	c-4.466,0-8.084-3.62-8.084-8.084c0-4.465,3.618-8.084,8.084-8.084h53.895c7.43,0,13.474-6.044,13.474-13.474
	s-6.044-13.474-13.474-13.474H202.105c-7.43,0-13.474,6.044-13.474,13.474s6.044,13.474,13.474,13.474h196.985
	c4.466,0,8.084,3.62,8.084,8.084c0,4.465-3.618,8.084-8.084,8.084H220.968v59.284h99.706c4.466,0,8.084,3.62,8.084,8.084
	c0,4.465-3.618,8.084-8.084,8.084H115.874c-7.43,0-13.474,6.044-13.474,13.474s6.044,13.474,13.474,13.474h110.215
	c4.465,0,8.084,3.62,8.084,8.084s-3.62,8.084-8.084,8.084h-91.352v59.284h102.4v-31.439c0-30.213,24.58-54.793,54.793-54.793
	c10.642,0,20.871,3.061,29.601,8.674c6.127-23.564,27.583-41.011,53.038-41.011c10.642,0,20.872,3.062,29.6,8.674
	c6.128-23.562,27.586-41.011,53.039-41.011c30.212,0,54.793,24.58,54.793,54.793v104.197c0,28.231-22.969,51.2-51.2,51.2H234.442
	c-4.465,0-8.084-3.62-8.084-8.084s3.62-8.084,8.084-8.084h16.588c-6.862-7.304-11.61-16.615-13.256-26.947h-121.9
	c-16.535,0-30.431,11.515-34.09,26.947h120.321c4.465,0,8.084,3.62,8.084,8.084s-3.62,8.084-8.084,8.084H8.084
	c-4.465,0-8.084-3.62-8.084-8.084s3.62-8.084,8.084-8.084h57.227c3.887-24.405,25.082-43.116,50.563-43.116h2.695v-59.284h-2.695
	c-16.345,0-29.642-13.297-29.642-29.642s13.297-29.642,29.642-29.642H204.8v-59.284h-2.695c-16.345,0-29.642-13.297-29.642-29.642
	s13.297-29.642,29.642-29.642h132.042V59.284h-2.695c-16.344,0-29.642-13.297-29.642-29.642S315.109,0,331.453,0h150.905
	C498.702,0,512,13.297,512,29.642s-13.298,29.642-29.642,29.642h-2.695v37.726h2.695c16.344,0,29.642,13.297,29.642,29.642
	s-13.298,29.642-29.642,29.642h-2.695v9.162c0,4.465-3.618,8.084-8.084,8.084S463.495,169.921,463.495,165.457z M253.305,342.232
	c0,19.316,15.715,35.032,35.032,35.032h3.783H460.8c19.317,0,35.032-15.716,35.032-35.032v-39.523
	c0-21.297-17.326-38.624-38.624-38.624s-38.625,17.327-38.625,38.624v2.495c0,3.405-2.133,6.445-5.337,7.603
	c-3.201,1.155-6.788,0.183-8.964-2.435c-7.371-8.866-18.201-13.951-29.713-13.951c-21.298,0-38.624,17.327-38.624,38.624v2.495
	c0,3.405-2.133,6.445-5.336,7.602c-3.205,1.157-6.788,0.183-8.964-2.434c-7.373-8.867-18.203-13.952-29.714-13.952
	c-2.799,0-5.591,0.3-8.298,0.892c-4.367,0.955-8.671-1.809-9.626-6.17c-0.954-4.361,1.81-8.671,6.171-9.625
	c3.841-0.84,7.793-1.265,11.752-1.265c10.642,0,20.871,3.061,29.601,8.674c6.126-23.564,27.582-41.011,53.037-41.011
	c10.642,0,20.872,3.062,29.6,8.674c6.128-23.562,27.586-41.011,53.039-41.011c15.055,0,28.711,6.103,38.624,15.965v-25.846
	c0-21.297-17.326-38.624-38.624-38.624s-38.625,17.327-38.625,38.624v2.495c0,3.405-2.133,6.445-5.337,7.603
	c-3.201,1.156-6.788,0.183-8.964-2.435c-7.371-8.866-18.201-13.951-29.713-13.951c-21.298,0-38.624,17.327-38.624,38.624v2.495
	c0,3.405-2.133,6.445-5.336,7.602c-3.205,1.158-6.788,0.183-8.964-2.434c-7.373-8.867-18.203-13.952-29.714-13.952
	c-21.299,0.001-38.625,17.328-38.625,38.625V342.232z M482.358,43.116c7.43,0,13.474-6.044,13.474-13.474
	s-6.044-13.474-13.474-13.474H331.453c-7.43,0-13.474,6.044-13.474,13.474s6.044,13.474,13.474,13.474H482.358z M463.495,59.284
	H350.316v37.726h113.179V59.284z M99.705,43.116c31.204,0,56.589,25.386,56.589,56.589s-25.385,56.589-56.589,56.589
	s-56.589-25.385-56.589-56.589S68.501,43.116,99.705,43.116z M99.705,59.284c-22.289,0-40.421,18.132-40.421,40.421
	s18.132,40.421,40.421,40.421s40.421-18.132,40.421-40.421S121.994,59.284,99.705,59.284z M9.544,81.422
	c0.765,0.226,1.537,0.334,2.296,0.334c3.489,0,6.709-2.277,7.749-5.794c10.415-35.205,43.36-59.794,80.117-59.794
	c36.74,0,69.682,24.575,80.107,59.763c1.269,4.28,5.764,6.723,10.048,5.454c4.28-1.269,6.723-5.767,5.454-10.047
	c-5.981-20.189-18.565-38.349-35.429-51.133C142.45,6.986,121.64,0,99.705,0C77.764,0,56.948,6.99,39.509,20.216
	C22.64,33.008,10.06,51.177,4.084,71.376C2.818,75.657,5.261,80.154,9.544,81.422z M99.705,199.411
	c26.633,0,51.67-10.372,70.503-29.203c3.157-3.157,3.157-8.275,0-11.432c-3.156-3.157-8.275-3.157-11.432,0
	c-15.779,15.777-36.757,24.467-59.071,24.467c-46.062,0-83.537-37.475-83.537-83.537c0-4.465-3.62-8.084-8.084-8.084
	S0,95.241,0,99.705C0,154.683,44.727,199.411,99.705,199.411z M256,172.463c-4.465,0-8.084,3.62-8.084,8.084
	c0,4.465,3.62,8.084,8.084,8.084h53.895c4.466,0,8.084-3.62,8.084-8.084c0-4.465-3.618-8.084-8.084-8.084H256z M385.347,86.232
	h43.116c4.466,0,8.084-3.62,8.084-8.084s-3.618-8.084-8.084-8.084h-43.116c-4.466,0-8.084,3.62-8.084,8.084
	S380.882,86.232,385.347,86.232z M342.232,172.463c-4.466,0-8.084,3.62-8.084,8.084c0,4.465,3.618,8.084,8.084,8.084h53.895
	c4.466,0,8.084-3.62,8.084-8.084c0-4.465-3.618-8.084-8.084-8.084H342.232z M493.137,456.308h-53.895
	c-4.466,0-8.084,3.62-8.084,8.084s3.618,8.084,8.084,8.084h53.895c4.466,0,8.084-3.62,8.084-8.084S497.603,456.308,493.137,456.308z
	 M406.905,456.308H169.768c-4.465,0-8.084,3.62-8.084,8.084s3.62,8.084,8.084,8.084h237.137c4.466,0,8.084-3.62,8.084-8.084
	S411.371,456.308,406.905,456.308z M374.568,432.955c4.466,0,8.084-3.62,8.084-8.084s-3.618-8.084-8.084-8.084H137.432
	c-4.465,0-8.084,3.62-8.084,8.084s3.62,8.084,8.084,8.084H374.568z M158.989,291.032c-4.465,0-8.084,3.62-8.084,8.084
	c0,4.465,3.62,8.084,8.084,8.084h53.895c4.465,0,8.084-3.62,8.084-8.084c0-4.465-3.62-8.084-8.084-8.084H158.989z"/>
<g>
</g>
<g>
</g>
<g>
</g>
<g>
</g>
<g>
</g>
<g>
</g>
<g>
</g>
<g>
</g>
<g>
</g>
<g>
</g>
<g>
</g>
<g>
</g>
<g>
</g>
<g>
</g>
<g>
</g>
</svg>
