<?xml version="1.0" encoding="utf-8"?>
<!DOCTYPE svg>
<svg width="76" height="46" viewBox="0 0 76 46" fill="none" xmlns="http://www.w3.org/2000/svg">
<path d="M58.6 24.0935V5.70593H17.4V39.6776H58.6V29.7829C58.5 29.7829 58.6 24.0935 58.6 24.0935Z" fill="#006FCF"/>
<path d="M53.5 22.197H56.6V16.2603H53.2V17.0848L52.6 16.2603H49.7V17.3322L49.1 16.2603H44.3C44.1 16.2603 43.8 16.2603 43.7 16.2603C43.6 16.2603 43.3 16.3427 43.1 16.3427C42.9 16.3427 42.8 16.4252 42.6 16.5076C42.4 16.5901 42.3 16.5901 42.1 16.6725V16.5076V16.2603H26.8L26.3 17.2497L25.8 16.2603H22.1V17.3322L21.5 16.2603H18.7L17.4 18.8164V22.197H19.5L19.9 21.3725H20.6L21 22.197H37.1V21.4549L37.7 22.197H42.2V22.0321V21.7023C42.3 21.7848 42.5 21.7848 42.6 21.8672C42.7 21.9497 42.9 21.9497 43 22.0321C43.2 22.1146 43.4 22.1146 43.6 22.1146C43.8 22.1146 44.1 22.1146 44.2 22.1146H46.9L47.3 21.29H48L48.4 22.1146H52.9V21.3725L53.5 22.197ZM58.6 29.7829V24.176H33.4L32.8 24.9181L32.2 24.176H24.9V30.1128H32.2L32.8 29.3707L33.4 30.1128H38V28.7935H37.8C38.4 28.7935 39 28.711 39.5 28.5461V30.1128H42.8V29.3707L43.4 30.1128H57C57.6 30.0303 58.1 29.9479 58.6 29.7829Z" fill="white"/>
<path d="M57 28.2987H54.5V29.1233H56.9C57.9 29.1233 58.6 28.6285 58.6 27.804C58.6 27.0619 58.1 26.6496 57.1 26.6496H56C55.7 26.6496 55.5 26.4847 55.5 26.2373C55.5 25.99 55.7 25.8251 56 25.8251H58.1L58.6 25.0005H56.1C55.1 25.0005 54.4 25.4952 54.4 26.2373C54.4 26.9794 55 27.3917 55.9 27.3917H57C57.3 27.3917 57.5 27.5566 57.5 27.804C57.6 28.1338 57.4 28.2987 57 28.2987ZM52.5 28.2987H50V29.1233H52.4C53.4 29.1233 54.1 28.6285 54.1 27.804C54.1 27.0619 53.5 26.6496 52.6 26.6496H51.5C51.2 26.6496 51 26.4847 51 26.2373C51 25.99 51.2 25.8251 51.5 25.8251H53.6L54.1 25.0005H51.6C50.6 25.0005 49.9 25.4952 49.9 26.2373C49.9 26.9794 50.5 27.3917 51.4 27.3917H52.5C52.8 27.3917 53 27.5566 53 27.804C53.1 28.1338 52.8 28.2987 52.5 28.2987ZM49.3 25.9075V25.083H45.4V29.1233H49.3V28.2987H46.5V27.4742H49.2V26.6496H46.5V25.9075H49.3C49.3 25.825 49.3 25.9075 49.3 25.9075ZM43.1 25.9075C43.6 25.9075 43.7 26.1549 43.7 26.4022C43.7 26.6496 43.5 26.897 43.1 26.897H41.7V25.9075H43.1ZM41.7 27.6391H42.3L43.8 29.0408H45.2L43.5 27.5566C44.3 27.3917 44.8 26.9794 44.8 26.3198C44.8 25.5777 44.2 25.0005 43.1 25.0005H40.5V29.0408H41.6L41.7 27.6391ZM38.8 26.4022C38.8 26.7321 38.6 26.897 38.2 26.897H36.7V25.8251H38C38.5 25.9075 38.8 26.1549 38.8 26.4022ZM35.6 25.083V29.1233H36.7V27.7215H38.2C39.2 27.7215 39.9 27.2268 39.9 26.3198C39.9 25.5777 39.3 24.918 38.2 24.918L35.6 25.083ZM33.9 29.0408H35.3L33.4 26.9794L35.3 25.0005H33.9L32.7 26.3198L31.5 25.0005H30.1L32 26.9794L30.2 28.9584H31.6L32.8 27.6391L33.9 29.0408ZM29.8 25.9075V25.083H25.9V29.1233H29.8V28.2987H27V27.4742H29.7V26.6496H27V25.9075H29.8ZM52.1 18.8163L54 21.2075H55.4V17.1672H54.3V19.8058L54 19.476L52.3 17.1672H50.8V21.2075H51.9V18.4865L52.1 18.8163ZM47.3 18.7339L47.7 17.9093L48.1 18.7339L48.6 19.6409H46.9L47.3 18.7339ZM49.2 21.2075H50.4L48.3 17.1672H46.8L44.7 21.2075H45.9L46.4 20.383H48.8L49.2 21.2075ZM44.1 21.2075L44.6 20.383H44.3C43.5 20.383 43 19.8883 43 19.2286V19.1462C43 18.4865 43.5 17.9918 44.3 17.9918H45.5V17.1672H44.2C42.7 17.1672 41.9 17.9918 41.9 19.1462V19.2286C41.9 20.4655 42.7 21.2075 44.1 21.2075ZM40 21.2075H41.1V19.3935V17.2497H40V19.3111V21.2075ZM37.6 17.9918C38.1 17.9918 38.2 18.2392 38.2 18.4865C38.2 18.7339 38 18.9813 37.6 18.9813H36.2V17.9918H37.6ZM36.2 19.8058H36.8L38.3 21.2075H39.7L38 19.7234C38.8 19.5584 39.3 19.1462 39.3 18.4865C39.3 17.7444 38.7 17.1672 37.6 17.1672H35V21.2075H36.1L36.2 19.8058ZM34.2 17.9918V17.1672H30.3V21.2075H34.2V20.383H31.4V19.5584H34.1V18.7339H31.4V17.9918H34.2ZM25.9 21.2075H26.9L28.3 17.9918V21.2075H29.4V17.1672H27.6L26.4 19.8883L25.3 17.1672H23.5V21.2075H24.6V17.9918L25.9 21.2075ZM19.9 18.7339L20.3 17.9093L20.7 18.7339L21.2 19.6409H19.4L19.9 18.7339ZM21.8 21.2075H23L20.9 17.1672H19.5L17.4 21.2075H18.6L19.1 20.383H21.5L21.8 21.2075Z" fill="#006FCF"/>
</svg>
