<?xml version="1.0" encoding="utf-8"?>
<!DOCTYPE svg>
<svg width="45" height="46" viewBox="0 0 45 46" fill="none" xmlns="http://www.w3.org/2000/svg">
<path fill-rule="evenodd" clip-rule="evenodd" d="M23.35 6.70361C29.76 6.70361 35.12 10.4471 36.48 15.4686C38.1 15.0481 40.06 14.4214 41.13 13.3083C31.65 25.9817 18.97 9.26798 6.62 17.6867C7.98 16.2849 9.22 15.0151 10.6 14.3472C12.41 9.90288 17.44 6.70361 23.35 6.70361ZM33.37 15.9221C32.26 12.1539 28.2 9.35043 23.36 9.35043C19.78 9.35043 16.65 10.8759 14.8 13.1929C22.51 12.7064 26.96 16.6642 33.37 15.9221ZM23.37 29.2304C29.29 29.2304 34.31 26.0394 36.12 21.5951C37.5 20.9272 38.73 19.6574 40.1 18.2556C27.75 26.6661 15.07 9.9606 5.59 22.634C6.66 21.5126 8.62 20.8859 10.24 20.4737C11.6 25.4869 16.96 29.2304 23.37 29.2304ZM13.35 20.0202C14.46 23.7884 18.52 26.5919 23.36 26.5919C26.94 26.5919 30.07 25.0664 31.92 22.7494C24.21 23.2277 19.76 19.2698 13.35 20.0202ZM10.14 14.9409C16.48 12.1787 22.61 16.1942 29.49 16.6642C21.36 15.3367 16.26 11.6922 10.14 14.9409ZM9.29 19.4595C15.63 16.6972 21.76 20.7128 28.64 21.1828C20.51 19.8552 15.41 16.219 9.29 19.4595ZM19 27.1031C23.73 28.5708 30.73 28.1008 33.33 22.7659C29.49 27.771 24.49 27.771 19 27.1031ZM27.66 8.08886C22.93 6.62116 15.82 7.40448 13.23 12.7311C17.06 7.72606 22.18 7.42098 27.66 8.08886Z" fill="#00692F"/>
<path fill-rule="evenodd" clip-rule="evenodd" d="M33.07 22.6176C23.46 23.8626 19.95 18.2722 10.62 20.3913C9.17 20.7211 6.78 21.4302 5.64 22.5351C15.16 9.76277 27.75 26.9217 40.21 18.066C38.82 20.3748 36.24 22.0981 33.07 22.6176ZM18.42 18.6927C15.5 17.9753 13.23 17.8352 10.14 19.1462C16.07 17.0848 22.05 20.6386 28.35 21.1746C23.19 20.2923 21.89 19.5502 18.42 18.6927Z" fill="#CA1F13"/>
<path fill-rule="evenodd" clip-rule="evenodd" d="M9.79 38.5149H8.31L8.51 37.6738C8.31 37.781 8.11 37.8965 7.92 38.0119C7.72 38.1273 7.52 38.2345 7.3 38.3252C7.08 38.4242 6.85 38.4984 6.59 38.5561C6.34 38.6138 6.06 38.6468 5.74 38.6468C5.45 38.6468 5.2 38.6056 4.98 38.5314C4.76 38.4572 4.59 38.3417 4.45 38.2098C4.32 38.0696 4.23 37.9129 4.18 37.7233C4.14 37.5337 4.14 37.3358 4.19 37.1214C4.25 36.8575 4.37 36.6184 4.55 36.4123C4.73 36.1979 4.94 36.0082 5.2 35.8433C5.46 35.6784 5.75 35.53 6.07 35.3981C6.39 35.2661 6.73 35.1507 7.08 35.0517C7.43 34.9528 7.79 34.8538 8.16 34.7796C8.53 34.6972 8.89 34.623 9.23 34.557L9.32 34.1777C9.39 33.8974 9.41 33.6665 9.39 33.4686C9.37 33.279 9.31 33.1223 9.21 33.0068C9.11 32.8914 8.98 32.8007 8.82 32.7512C8.65 32.7018 8.46 32.677 8.24 32.677C7.99 32.677 7.78 32.7018 7.61 32.7595C7.44 32.809 7.3 32.8832 7.19 32.9739C7.08 33.0646 6.99 33.1635 6.94 33.2707C6.88 33.3861 6.84 33.4933 6.81 33.6088C6.79 33.6995 6.76 33.8067 6.71 33.9056C6.67 34.0046 6.61 34.087 6.53 34.1612C6.46 34.2354 6.37 34.2932 6.26 34.3426C6.15 34.3921 6.03 34.4086 5.88 34.4086C5.76 34.4086 5.66 34.3921 5.58 34.3509C5.49 34.3179 5.42 34.2684 5.37 34.2025C5.32 34.1365 5.28 34.0623 5.26 33.9716C5.24 33.8809 5.25 33.7902 5.27 33.683C5.32 33.4851 5.44 33.2954 5.65 33.114C5.85 32.9409 6.11 32.7842 6.41 32.6605C6.71 32.5369 7.05 32.4297 7.44 32.3555C7.82 32.2812 8.21 32.24 8.62 32.24C9.11 32.24 9.51 32.2812 9.83 32.3555C10.15 32.4297 10.4 32.5451 10.57 32.6853C10.74 32.8254 10.85 32.9986 10.9 33.1965C10.94 33.3944 10.94 33.617 10.88 33.8644L9.79 38.5149ZM9.15 34.9446C8.92 35.0023 8.69 35.0682 8.44 35.1424C8.19 35.2167 7.95 35.2991 7.71 35.3816C7.47 35.4723 7.24 35.5712 7.02 35.6702C6.8 35.7773 6.6 35.8845 6.42 36.0082C6.24 36.1237 6.09 36.2556 5.97 36.3875C5.85 36.5194 5.77 36.6596 5.74 36.808C5.71 36.9565 5.71 37.0966 5.74 37.2368C5.78 37.3687 5.84 37.4924 5.92 37.5914C6.01 37.6903 6.12 37.7728 6.25 37.8305C6.38 37.8882 6.53 37.9212 6.68 37.9212C6.85 37.9212 7.01 37.9047 7.17 37.8635C7.33 37.8305 7.49 37.781 7.64 37.7151C7.8 37.6573 7.95 37.5831 8.11 37.5007C8.27 37.4182 8.43 37.3358 8.6 37.2451L9.15 34.9446ZM14.21 38.2263C14.41 38.2263 14.61 38.2015 14.79 38.1521C14.97 38.1026 15.14 38.0366 15.28 37.9459C15.42 37.8635 15.54 37.7645 15.64 37.6573C15.74 37.5501 15.8 37.4347 15.82 37.3193C15.86 37.1296 15.85 36.973 15.77 36.8328C15.69 36.6926 15.57 36.5689 15.41 36.4535C15.25 36.338 15.06 36.2391 14.84 36.1484C14.62 36.0577 14.4 35.967 14.18 35.8681C13.96 35.7691 13.74 35.6702 13.52 35.5547C13.31 35.4393 13.12 35.3156 12.97 35.1672C12.82 35.0188 12.71 34.8538 12.64 34.656C12.57 34.4663 12.57 34.2354 12.63 33.9716C12.69 33.7242 12.81 33.4933 12.98 33.2872C13.16 33.0811 13.37 32.8997 13.63 32.743C13.89 32.5946 14.19 32.4709 14.52 32.3884C14.85 32.306 15.2 32.2565 15.57 32.2565C15.81 32.2565 16.04 32.273 16.25 32.2977C16.46 32.3225 16.66 32.3802 16.84 32.4626C17.03 32.5451 17.2 32.6605 17.37 32.809C17.54 32.9574 17.71 33.1553 17.87 33.3944L17.24 33.7902C17.05 33.4109 16.8 33.1223 16.5 32.9409C16.2 32.7512 15.84 32.6605 15.45 32.6605C15.24 32.6605 15.05 32.6853 14.86 32.7265C14.67 32.7677 14.51 32.8254 14.37 32.8997C14.23 32.9739 14.11 33.0646 14.02 33.1635C13.93 33.2625 13.87 33.3697 13.84 33.4768C13.8 33.6582 13.82 33.8232 13.91 33.9551C14 34.0953 14.14 34.2189 14.31 34.3261C14.49 34.4333 14.69 34.5405 14.93 34.6312C15.17 34.7219 15.41 34.8209 15.66 34.9198C15.91 35.0188 16.15 35.1177 16.38 35.2331C16.61 35.3403 16.81 35.4723 16.98 35.6207C17.15 35.7691 17.27 35.934 17.35 36.1319C17.43 36.3216 17.44 36.5442 17.38 36.7998C17.32 37.0554 17.2 37.3028 17.03 37.5254C16.86 37.748 16.64 37.9459 16.36 38.1108C16.09 38.2758 15.76 38.4077 15.38 38.4984C15 38.5891 14.57 38.6386 14.1 38.6386C13.88 38.6386 13.66 38.6221 13.44 38.5973C13.22 38.5726 13 38.5149 12.79 38.4324C12.58 38.35 12.37 38.2345 12.17 38.0861C11.97 37.9377 11.79 37.7398 11.63 37.5007L12.34 37.0472C12.47 37.2533 12.6 37.4347 12.73 37.5831C12.86 37.7315 13 37.847 13.15 37.9459C13.3 38.0366 13.46 38.1108 13.63 38.1521C13.8 38.2015 14 38.2263 14.21 38.2263ZM20.92 38.2263C21.12 38.2263 21.32 38.2015 21.5 38.1521C21.68 38.1026 21.85 38.0366 21.99 37.9459C22.13 37.8635 22.25 37.7645 22.35 37.6573C22.45 37.5501 22.51 37.4347 22.53 37.3193C22.57 37.1296 22.56 36.973 22.48 36.8328C22.4 36.6926 22.28 36.5689 22.12 36.4535C21.96 36.338 21.77 36.2391 21.55 36.1484C21.33 36.0577 21.11 35.967 20.89 35.8681C20.67 35.7691 20.45 35.6702 20.23 35.5547C20.02 35.4393 19.83 35.3156 19.68 35.1672C19.53 35.0188 19.42 34.8538 19.35 34.656C19.28 34.4663 19.28 34.2354 19.34 33.9716C19.4 33.7242 19.52 33.4933 19.69 33.2872C19.87 33.0811 20.08 32.8997 20.34 32.743C20.6 32.5863 20.9 32.4709 21.23 32.3884C21.56 32.306 21.91 32.2565 22.28 32.2565C22.52 32.2565 22.75 32.273 22.96 32.2977C23.17 32.3225 23.37 32.3802 23.55 32.4626C23.74 32.5451 23.91 32.6605 24.08 32.809C24.25 32.9574 24.42 33.1553 24.58 33.3944L23.95 33.7902C23.76 33.4109 23.51 33.1223 23.21 32.9409C22.91 32.7512 22.55 32.6605 22.16 32.6605C21.95 32.6605 21.76 32.6853 21.57 32.7265C21.38 32.7677 21.22 32.8254 21.08 32.8997C20.94 32.9739 20.82 33.0646 20.73 33.1635C20.64 33.2625 20.58 33.3697 20.55 33.4768C20.51 33.6582 20.53 33.8232 20.62 33.9551C20.71 34.0953 20.85 34.2189 21.02 34.3261C21.2 34.4333 21.4 34.5405 21.64 34.6312C21.88 34.7219 22.12 34.8209 22.37 34.9198C22.62 35.0188 22.86 35.1177 23.09 35.2331C23.32 35.3403 23.52 35.4723 23.69 35.6207C23.86 35.7691 23.98 35.934 24.06 36.1319C24.14 36.3216 24.15 36.5442 24.09 36.7998C24.03 37.0554 23.91 37.3028 23.74 37.5254C23.57 37.748 23.35 37.9459 23.07 38.1108C22.8 38.2758 22.47 38.4077 22.09 38.4984C21.71 38.5973 21.28 38.6386 20.81 38.6386C20.59 38.6386 20.37 38.6221 20.15 38.5973C19.93 38.5726 19.71 38.5149 19.5 38.4324C19.29 38.35 19.08 38.2345 18.88 38.0861C18.68 37.9377 18.5 37.7398 18.34 37.5007L19.05 37.0472C19.18 37.2533 19.31 37.4347 19.44 37.5831C19.57 37.7315 19.71 37.847 19.86 37.9459C20.01 38.0366 20.17 38.1108 20.34 38.1521C20.51 38.2015 20.7 38.2263 20.92 38.2263ZM26.64 32.6028L27.76 32.2565H28.19L26.72 38.5149H25.25L26.64 32.6028ZM30.96 38.2263C31.16 38.2263 31.36 38.2015 31.54 38.1521C31.72 38.1026 31.89 38.0366 32.03 37.9459C32.17 37.8635 32.29 37.7645 32.39 37.6573C32.49 37.5501 32.55 37.4347 32.57 37.3193C32.61 37.1296 32.6 36.973 32.52 36.8328C32.44 36.6926 32.32 36.5689 32.16 36.4535C32 36.338 31.81 36.2391 31.59 36.1484C31.37 36.0577 31.15 35.967 30.93 35.8681C30.71 35.7691 30.49 35.6702 30.27 35.5547C30.06 35.4393 29.87 35.3156 29.72 35.1672C29.57 35.0188 29.46 34.8538 29.39 34.656C29.32 34.4663 29.32 34.2354 29.38 33.9716C29.44 33.7242 29.56 33.4933 29.73 33.2872C29.91 33.0811 30.12 32.8997 30.38 32.743C30.64 32.5946 30.94 32.4709 31.27 32.3884C31.6 32.306 31.95 32.2565 32.32 32.2565C32.56 32.2565 32.79 32.273 33 32.2977C33.21 32.3225 33.41 32.3802 33.59 32.4626C33.78 32.5451 33.95 32.6605 34.12 32.809C34.29 32.9574 34.46 33.1553 34.62 33.3944L33.99 33.7902C33.8 33.4109 33.55 33.1223 33.25 32.9409C32.95 32.7512 32.59 32.6605 32.2 32.6605C31.99 32.6605 31.8 32.6853 31.61 32.7265C31.42 32.7677 31.26 32.8254 31.12 32.8997C30.98 32.9739 30.86 33.0646 30.77 33.1635C30.68 33.2625 30.62 33.3697 30.59 33.4768C30.55 33.6582 30.57 33.8232 30.66 33.9551C30.75 34.0953 30.89 34.2189 31.06 34.3261C31.24 34.4333 31.44 34.5405 31.68 34.6312C31.92 34.7219 32.16 34.8209 32.41 34.9198C32.66 35.0188 32.9 35.1177 33.13 35.2331C33.36 35.3403 33.56 35.4723 33.73 35.6207C33.9 35.7691 34.02 35.934 34.1 36.1319C34.18 36.3216 34.19 36.5442 34.13 36.7998C34.07 37.0554 33.95 37.3028 33.78 37.5254C33.61 37.748 33.39 37.9459 33.11 38.1108C32.84 38.2758 32.51 38.4077 32.13 38.4984C31.75 38.5973 31.32 38.6386 30.85 38.6386C30.63 38.6386 30.41 38.6221 30.19 38.5973C29.97 38.5726 29.75 38.5149 29.54 38.4324C29.33 38.35 29.12 38.2345 28.92 38.0861C28.72 37.9377 28.54 37.7398 28.38 37.5007L29.09 37.0472C29.22 37.2533 29.35 37.4347 29.48 37.5831C29.61 37.7315 29.75 37.847 29.9 37.9459C30.05 38.0366 30.21 38.1108 30.38 38.1521C30.56 38.2015 30.75 38.2263 30.96 38.2263ZM39.37 37.7315C39.11 38.0119 38.79 38.2345 38.42 38.3994C38.05 38.5643 37.63 38.6468 37.15 38.6468C36.9 38.6468 36.69 38.6138 36.53 38.5479C36.36 38.4819 36.24 38.3829 36.15 38.2593C36.06 38.1356 36.01 37.9872 35.99 37.8058C35.97 37.6326 35.99 37.4347 36.04 37.2203L37.06 32.8997H35.77L35.84 32.5946C36.26 32.5946 36.61 32.5369 36.91 32.4132C37.21 32.2895 37.47 32.1246 37.69 31.9102C37.91 31.6958 38.1 31.4567 38.26 31.1763C38.42 30.896 38.58 30.6074 38.72 30.2941H39.14L38.65 32.3884H40.32L40.2 32.8997H38.53L37.51 37.2203C37.49 37.311 37.49 37.3935 37.51 37.4759C37.53 37.5584 37.57 37.6244 37.63 37.6821C37.69 37.7398 37.76 37.7893 37.85 37.8222C37.94 37.8552 38.04 37.8717 38.15 37.8717C38.32 37.8717 38.48 37.8387 38.63 37.7728C38.78 37.7068 38.92 37.6244 39.04 37.5254L39.37 37.7315ZM27.87 30.3106C27.99 30.3106 28.09 30.327 28.19 30.36C28.29 30.393 28.37 30.4342 28.43 30.492C28.49 30.5497 28.54 30.6156 28.57 30.6899C28.6 30.7641 28.6 30.8465 28.58 30.929C28.56 31.0114 28.52 31.0939 28.46 31.1681C28.4 31.2423 28.32 31.3083 28.23 31.366C28.14 31.4237 28.04 31.4649 27.93 31.4979C27.82 31.5309 27.71 31.5474 27.59 31.5474C27.47 31.5474 27.37 31.5309 27.28 31.4979C27.19 31.4649 27.11 31.4237 27.04 31.366C26.98 31.3083 26.93 31.2423 26.9 31.1681C26.87 31.0939 26.87 31.0114 26.89 30.929C26.91 30.8465 26.95 30.7641 27.01 30.6899C27.07 30.6156 27.15 30.5497 27.24 30.492C27.33 30.4342 27.43 30.393 27.54 30.36C27.65 30.327 27.76 30.3106 27.87 30.3106Z" fill="#00692F"/>
</svg>
