<svg width="512.021" height="512.021" xmlns="http://www.w3.org/2000/svg">

 <g>
  <title>background</title>
  <rect fill="none" id="canvas_background" height="402" width="582" y="-1" x="-1"/>
 </g>
 <g>
  <title>Layer 1</title>
  <g id="svg_1">
   <g id="svg_2">
    <g id="svg_3">
     <path fill="#c6c6c6" id="svg_4" d="m507.184,247.202c0.203,-0.247 0.379,-0.507 0.568,-0.76c0.227,-0.304 0.463,-0.601 0.674,-0.917c0.203,-0.303 0.379,-0.618 0.565,-0.93c0.171,-0.286 0.35,-0.565 0.508,-0.86c0.17,-0.318 0.314,-0.645 0.467,-0.969c0.145,-0.307 0.298,-0.609 0.428,-0.923c0.13,-0.315 0.235,-0.636 0.35,-0.956c0.121,-0.337 0.25,-0.67 0.355,-1.015c0.097,-0.32 0.168,-0.645 0.249,-0.968c0.089,-0.351 0.187,-0.698 0.258,-1.056c0.074,-0.375 0.118,-0.753 0.172,-1.13c0.044,-0.311 0.104,-0.618 0.135,-0.933c0.138,-1.4 0.138,-2.811 0,-4.211c-0.031,-0.315 -0.09,-0.621 -0.135,-0.932c-0.054,-0.378 -0.098,-0.756 -0.173,-1.13c-0.071,-0.358 -0.169,-0.704 -0.258,-1.055c-0.081,-0.324 -0.152,-0.649 -0.249,-0.969c-0.104,-0.344 -0.233,-0.677 -0.354,-1.013c-0.115,-0.32 -0.22,-0.642 -0.35,-0.957c-0.13,-0.314 -0.283,-0.616 -0.428,-0.922c-0.153,-0.325 -0.297,-0.652 -0.467,-0.97c-0.157,-0.294 -0.337,-0.573 -0.507,-0.859c-0.186,-0.312 -0.362,-0.627 -0.565,-0.931c-0.211,-0.315 -0.446,-0.612 -0.673,-0.915c-0.19,-0.254 -0.367,-0.515 -0.57,-0.762c-0.443,-0.539 -0.909,-1.058 -1.402,-1.551c-0.004,-0.004 -0.007,-0.008 -0.011,-0.012l-64,-64c-8.331,-8.331 -21.839,-8.331 -30.17,0c-8.331,8.331 -8.331,21.839 0,30.17l27.582,27.582l-119.164,0c-11.782,0 -21.333,9.551 -21.333,21.333c0,11.782 9.551,21.333 21.333,21.333l119.163,0l-27.582,27.582c-8.331,8.331 -8.331,21.839 0,30.17c8.331,8.331 21.839,8.331 30.17,0l64,-64c0.004,-0.004 0.007,-0.008 0.011,-0.012c0.494,-0.494 0.96,-1.012 1.403,-1.552z"/>
     <path fill="#c6c6c6" id="svg_5" d="m362.686,297.672c-11.782,0 -21.333,9.551 -21.333,21.333l0,106.667l-85.333,0l0,-341.325l0,-0.008c0,-9.421 -6.18,-17.727 -15.203,-20.434l-74.11,-22.233l174.647,0l0,106.667c0,11.782 9.551,21.333 21.333,21.333s21.333,-9.551 21.333,-21.333l0,-128c0,-11.782 -9.551,-21.333 -21.333,-21.333l-341.334,0c-0.002,0 -0.004,0 -0.006,0c-0.631,-0.001 -1.256,0.029 -1.876,0.083c-9.786,0.738 -16.165,7.175 -18.483,14.86c-0.149,0.478 -0.279,0.966 -0.395,1.46c-0.012,0.053 -0.022,0.107 -0.034,0.161c-0.115,0.508 -0.211,1.024 -0.29,1.547c-0.011,0.074 -0.023,0.147 -0.034,0.221c-0.067,0.477 -0.12,0.96 -0.155,1.449c-0.062,0.788 -0.081,1.578 -0.061,2.368l0,425.859c0,10.169 7.178,18.925 17.15,20.919l213.333,42.667c13.201,2.64 25.517,-7.457 25.517,-20.919l0,-21.342l106.667,0c11.782,0 21.333,-9.551 21.333,-21.333l0,-128c0,-11.783 -9.551,-21.334 -21.333,-21.334zm-149.333,165.986l-170.667,-34.133l0,-380.505l170.667,51.2l0,346.785l0,16.653z"/>
    </g>
   </g>
  </g>
  <g id="svg_6"/>
  <g id="svg_7"/>
  <g id="svg_8"/>
  <g id="svg_9"/>
  <g id="svg_10"/>
  <g id="svg_11"/>
  <g id="svg_12"/>
  <g id="svg_13"/>
  <g id="svg_14"/>
  <g id="svg_15"/>
  <g id="svg_16"/>
  <g id="svg_17"/>
  <g id="svg_18"/>
  <g id="svg_19"/>
  <g id="svg_20"/>
 </g>
</svg>