<?xml version="1.0" encoding="utf-8"?>
<!DOCTYPE svg>
<svg width="68" height="50" viewBox="0 0 68 50" fill="none" xmlns="http://www.w3.org/2000/svg">
<path d="M16.6997 43.537V41.0559C16.6997 40.1232 16.0357 39.4894 14.9694 39.4803C14.406 39.4712 13.8326 39.6252 13.4302 40.1866C13.1284 39.752 12.6455 39.4803 11.9815 39.4803C11.5087 39.4803 11.056 39.6071 10.6938 40.0689V39.5799H9.73813V43.537H10.7039V41.3457C10.7039 40.6575 11.1264 40.2953 11.7803 40.2953C12.4141 40.2953 12.736 40.6665 12.736 41.3366V43.537H13.7018V41.3457C13.7018 40.6575 14.1444 40.2953 14.7782 40.2953C15.4321 40.2953 15.744 40.6665 15.744 41.3366V43.537H16.6997ZM30.985 39.5799H29.4257V38.3846H28.4599V39.5799H27.5646V40.3677H28.4599V42.1697C28.4599 43.0842 28.8522 43.6366 29.989 43.6366C30.4015 43.6366 30.8844 43.5189 31.1862 43.3287L30.9146 42.5953C30.6329 42.7402 30.321 42.8216 30.0695 42.8216C29.5967 42.8216 29.4357 42.559 29.4357 42.1606V40.3768H30.995V39.5799H30.985ZM39.1336 39.4803C38.5803 39.4803 38.2282 39.7157 37.9767 40.0598V39.5799H37.0311V43.537H37.9868V41.3185C37.9868 40.6665 38.2986 40.3043 38.9224 40.3043C39.1135 40.3043 39.3147 40.3315 39.5159 40.4039L39.8076 39.589C39.6064 39.5165 39.3248 39.4803 39.1336 39.4803ZM26.8101 39.8968C26.3473 39.6252 25.7135 39.4803 25.0194 39.4803C23.9027 39.4803 23.1884 39.9602 23.1884 40.748C23.1884 41.3909 23.7216 41.7894 24.7075 41.9161L25.1602 41.9705C25.6833 42.0338 25.9348 42.1606 25.9348 42.387C25.9348 42.6949 25.5827 42.8669 24.9288 42.8669C24.2649 42.8669 23.792 42.6768 23.4701 42.4504L23.0174 43.1205C23.5405 43.4646 24.2045 43.6366 24.9188 43.6366C26.1863 43.6366 26.9207 43.1024 26.9207 42.3508C26.9207 41.6535 26.3372 41.2913 25.3815 41.1646L24.9288 41.1102C24.5164 41.065 24.1844 40.9835 24.1844 40.7209C24.1844 40.4311 24.4962 40.259 25.0194 40.259C25.5827 40.259 26.126 40.4492 26.3875 40.5941L26.8101 39.8968ZM52.4129 39.4803C51.8596 39.4803 51.5075 39.7157 51.256 40.0598V39.5799H50.3103V43.537H51.2661V41.3185C51.2661 40.6665 51.5779 40.3043 52.2016 40.3043C52.3928 40.3043 52.594 40.3315 52.7952 40.4039L53.0869 39.589C52.8757 39.5165 52.604 39.4803 52.4129 39.4803ZM40.0994 41.5539C40.0994 42.7492 41.0249 43.6276 42.4434 43.6276C43.1073 43.6276 43.55 43.4917 44.0228 43.1567L43.5601 42.4594C43.1979 42.6949 42.8257 42.8126 42.4132 42.8126C41.6486 42.8035 41.0853 42.3055 41.0853 41.5449C41.0853 40.7842 41.6486 40.2862 42.4132 40.2772C42.8257 40.2772 43.2079 40.4039 43.5601 40.6303L44.0228 39.9331C43.55 39.598 43.1073 39.4622 42.4434 39.4622C41.0249 39.4803 40.0994 40.3586 40.0994 41.5539ZM49.0528 41.5539V39.5799H48.0971V40.0598C47.7953 39.7067 47.3326 39.4803 46.7089 39.4803C45.4815 39.4803 44.5158 40.3496 44.5158 41.5539C44.5158 42.7583 45.4815 43.6276 46.7089 43.6276C47.3326 43.6276 47.7953 43.4012 48.0971 43.048V43.5279H49.0528V41.5539ZM45.4916 41.5539C45.4916 40.8567 45.9946 40.2862 46.8195 40.2862C47.6143 40.2862 48.1474 40.8295 48.1474 41.5539C48.1474 42.2693 47.6143 42.8216 46.8195 42.8216C45.9946 42.8216 45.4916 42.2512 45.4916 41.5539ZM33.9628 39.4803C32.6751 39.4803 31.7797 40.3224 31.7797 41.5539C31.7797 42.8126 32.7153 43.6276 34.0332 43.6276C34.6971 43.6276 35.3007 43.4827 35.8339 43.0752L35.3611 42.4413C34.9889 42.7039 34.5261 42.8579 34.0835 42.8579C33.4698 42.8579 32.9064 42.6043 32.7656 41.889H36.0251C36.0351 41.7803 36.0452 41.6716 36.0452 41.5539C36.0351 40.3224 35.1901 39.4803 33.9628 39.4803ZM33.9426 40.25C34.5563 40.25 34.9486 40.5941 35.0593 41.2098H32.7757C32.8763 40.6394 33.2585 40.25 33.9426 40.25ZM57.9158 41.5539V37.9862H56.96V40.0508C56.6582 39.6976 56.1955 39.4712 55.5718 39.4712C54.3444 39.4712 53.3787 40.3405 53.3787 41.5449C53.3787 42.7492 54.3444 43.6185 55.5718 43.6185C56.1955 43.6185 56.6582 43.3921 56.96 43.039V43.5189H57.9158V41.5539ZM59.5052 42.9575C59.5656 42.9575 59.626 42.9665 59.6763 42.9846C59.7266 43.0027 59.7769 43.0299 59.8171 43.0661C59.8573 43.1024 59.8875 43.1476 59.9076 43.1929C59.9278 43.2382 59.9378 43.2925 59.9378 43.3468C59.9378 43.4012 59.9278 43.4555 59.9076 43.5008C59.8875 43.5461 59.8573 43.5913 59.8171 43.6276C59.7769 43.6638 59.7266 43.6909 59.6763 43.709C59.626 43.7272 59.5656 43.7362 59.5052 43.7362C59.4449 43.7362 59.3845 43.7272 59.3342 43.709C59.2839 43.6909 59.2336 43.6638 59.1934 43.6276C59.1531 43.5913 59.123 43.5461 59.1028 43.5008C59.0827 43.4555 59.0727 43.4012 59.0727 43.3468C59.0727 43.2925 59.0827 43.2382 59.1028 43.1929C59.123 43.1476 59.1531 43.1024 59.1934 43.0661C59.2336 43.0299 59.2839 43.0027 59.3342 42.9846C59.3845 42.9756 59.4449 42.9575 59.5052 42.9575ZM59.5052 43.6638C59.5555 43.6638 59.5958 43.6547 59.636 43.6366C59.6763 43.6185 59.7165 43.6004 59.7467 43.5732C59.7769 43.5461 59.797 43.5098 59.8171 43.4736C59.8372 43.4374 59.8473 43.3921 59.8473 43.3559C59.8473 43.3197 59.8372 43.2744 59.8171 43.2382C59.797 43.202 59.7769 43.1657 59.7467 43.1386C59.7165 43.1114 59.6763 43.0933 59.636 43.0752C59.5958 43.0571 59.5555 43.048 59.5052 43.048C59.4549 43.048 59.4147 43.0571 59.3745 43.0752C59.3342 43.0933 59.294 43.1114 59.2638 43.1386C59.2336 43.1657 59.2135 43.202 59.1934 43.2382C59.1733 43.2744 59.1632 43.3197 59.1632 43.3559C59.1632 43.3921 59.1733 43.4374 59.1934 43.4736C59.2135 43.5098 59.2336 43.5461 59.2638 43.5732C59.294 43.6004 59.3342 43.6185 59.3745 43.6366C59.4147 43.6547 59.465 43.6638 59.5052 43.6638ZM59.5354 43.1748C59.5857 43.1748 59.626 43.1839 59.6561 43.202C59.6863 43.2201 59.6964 43.2472 59.6964 43.2835C59.6964 43.3106 59.6863 43.3378 59.6662 43.3559C59.6461 43.374 59.6159 43.3831 59.5656 43.3921L59.6964 43.5279H59.5958L59.4751 43.3921H59.4348V43.5279H59.3443V43.1657H59.5354V43.1748ZM59.4348 43.2382V43.3378H59.5354C59.5555 43.3378 59.5757 43.3378 59.5857 43.3287C59.5958 43.3197 59.6058 43.3106 59.6058 43.2925C59.6058 43.2744 59.5958 43.2653 59.5857 43.2563C59.5757 43.2472 59.5555 43.2472 59.5354 43.2472H59.4348V43.2382ZM54.3646 41.5539C54.3646 40.8567 54.8676 40.2862 55.6925 40.2862C56.4872 40.2862 57.0204 40.8295 57.0204 41.5539C57.0204 42.2693 56.4872 42.8216 55.6925 42.8216C54.8676 42.8216 54.3646 42.2512 54.3646 41.5539ZM22.0919 41.5539V39.5799H21.1362V40.0598C20.8344 39.7067 20.3716 39.4803 19.7479 39.4803C18.5206 39.4803 17.5548 40.3496 17.5548 41.5539C17.5548 42.7583 18.5206 43.6276 19.7479 43.6276C20.3716 43.6276 20.8344 43.4012 21.1362 43.048V43.5279H22.0919V41.5539ZM18.5306 41.5539C18.5306 40.8567 19.0336 40.2862 19.8585 40.2862C20.6533 40.2862 21.1865 40.8295 21.1865 41.5539C21.1865 42.2693 20.6533 42.8216 19.8585 42.8216C19.0336 42.8216 18.5306 42.2512 18.5306 41.5539Z" fill="#231F20"/>
<path d="M40.9746 9.45349H26.4982V32.8701H40.9746V9.45349Z" fill="#FF5F00"/>
<path d="M27.4137 21.162C27.4137 16.4081 29.8884 12.1794 33.7314 9.45376C30.9146 7.46163 27.3634 6.26636 23.5104 6.26636C14.3758 6.26636 6.97162 12.9309 6.97162 21.153C6.97162 29.3751 14.3758 36.0396 23.5104 36.0396C27.3734 36.0396 30.9146 34.8534 33.7314 32.8522C29.8884 30.1357 27.4137 25.9069 27.4137 21.162Z" fill="#EB001B"/>
<path d="M60.4911 21.1618C60.4911 29.3839 53.0869 36.0485 43.9524 36.0485C40.0893 36.0485 36.5482 34.8622 33.7314 32.8611C37.5743 30.1355 40.0491 25.9067 40.0491 21.1528C40.0491 16.3988 37.5743 12.1701 33.7314 9.44449C36.5482 7.45236 40.0994 6.25708 43.9524 6.25708C53.0869 6.26614 60.4911 12.9307 60.4911 21.1618Z" fill="#F79E1B"/>
<path d="M58.9218 30.3806V29.9001H59.133V29.8004H58.5797V29.9001H58.791V30.3806H58.9218ZM59.9781 30.3806V29.8004H59.8071L59.6159 30.1993L59.4248 29.8004H59.2537V30.3806H59.3745V29.9455L59.5556 30.3262H59.6763L59.8574 29.9455V30.3806H59.9781Z" fill="#F79E1B"/>
</svg>
