<?xml version="1.0" encoding="utf-8"?>
<!DOCTYPE svg>
<svg width="56" height="55" viewBox="0 0 56 55" fill="none" xmlns="http://www.w3.org/2000/svg">
<path fill-rule="evenodd" clip-rule="evenodd" d="M0 55H55.0167V0H0V55Z" fill="#FFFFFE"/>
<path fill-rule="evenodd" clip-rule="evenodd" d="M0 55H55.0167V27.5083H0V55Z" fill="#182E66"/>
<path fill-rule="evenodd" clip-rule="evenodd" d="M26.3172 7.69157L23.6747 20.046H20.4784L23.1212 7.69157H26.3172ZM39.7636 15.6691L41.4458 11.0296L42.4139 15.6691H39.7636ZM43.3308 20.046H46.2862L43.7043 7.69157H40.9781C40.3638 7.69157 39.8458 8.04779 39.6166 8.59713L34.8207 20.046H38.1775L38.8439 18.2007H42.9438L43.3308 20.046ZM34.9874 16.0125C35.0013 12.7523 30.4801 12.5714 30.5104 11.1149C30.5201 10.6719 30.9422 10.2004 31.8656 10.0798C32.3232 10.0209 33.5861 9.97339 35.0177 10.6328L35.5776 8.01195C34.8087 7.7338 33.8192 7.46594 32.588 7.46594C29.4284 7.46594 27.2058 9.14425 27.188 11.5494C27.1677 13.3281 28.7757 14.32 29.9847 14.9122C31.2312 15.5176 31.6488 15.9061 31.6427 16.4468C31.6341 17.2757 30.6488 17.6427 29.7313 17.6566C28.1236 17.6816 27.1916 17.2221 26.4489 16.8758L25.8687 19.5842C26.6167 19.9265 27.9949 20.2244 29.422 20.2397C32.7811 20.2397 34.9774 18.5811 34.9874 16.0125ZM21.7502 7.69157L16.5716 20.046H13.1936L10.645 10.1862C10.4905 9.57994 10.3558 9.35709 9.8859 9.1009C9.11733 8.68355 7.8486 8.29315 6.73297 8.05029L6.80855 7.69157H12.2469C12.9396 7.69157 13.5629 8.15255 13.7215 8.95057L15.0678 16.1L18.3925 7.69157H21.7502Z" fill="#182E66"/>
<path fill-rule="evenodd" clip-rule="evenodd" d="M12.8168 42.7439C13.1778 42.957 13.7424 43.1421 14.3253 43.1421C15.0472 43.1421 15.4546 42.7995 15.4546 42.2904C15.4546 41.8184 15.1398 41.5408 14.3531 41.254C13.3164 40.8928 12.6593 40.3376 12.6593 39.449C12.6593 38.4215 13.5109 37.6534 14.8716 37.6534C15.5471 37.6534 16.0375 37.8015 16.3615 37.9588L16.0934 38.8844C15.8619 38.7641 15.4268 38.5882 14.8438 38.5882C14.1217 38.5882 13.8163 38.9677 13.8163 39.3379C13.8163 39.8194 14.1772 40.0414 15.0103 40.356C16.0934 40.7725 16.6116 41.3188 16.6116 42.2071C16.6116 43.216 15.8525 44.0768 14.2514 44.0768C13.5848 44.0768 12.8999 43.8918 12.5576 43.6884L12.8168 42.7439Z" fill="#FFFFFE"/>
<path fill-rule="evenodd" clip-rule="evenodd" d="M21.0366 41.2168H18.6856V43.0496H21.3145V43.9843H17.5475V37.746H21.1756V38.6807H18.6856V40.2912H21.0366V41.2168Z" fill="#FFFFFE"/>
<path fill-rule="evenodd" clip-rule="evenodd" d="M26.6928 43.7993C26.4244 43.9287 25.832 44.0768 25.0732 44.0768C23.0925 44.0768 21.8891 42.8365 21.8891 40.9392C21.8891 38.8844 23.3237 37.6534 25.2304 37.6534C25.9801 37.6534 26.5078 37.8015 26.739 37.9219L26.4986 38.8288C26.2024 38.6993 25.7859 38.5882 25.2768 38.5882C24.0087 38.5882 23.0925 39.3843 23.0925 40.8836C23.0925 42.2535 23.8883 43.1235 25.2674 43.1235C25.7209 43.1235 26.2024 43.031 26.5078 42.9012L26.6928 43.7993Z" fill="#FFFFFE"/>
<path fill-rule="evenodd" clip-rule="evenodd" d="M28.7023 37.746V41.3835C28.7023 42.6053 29.2114 43.1696 29.9797 43.1696C30.8033 43.1696 31.294 42.6053 31.294 41.3835V37.746H32.4324V41.3093C32.4324 43.2346 31.4421 44.086 29.9427 44.086C28.4986 44.086 27.5639 43.281 27.5639 41.3188V37.746H28.7023Z" fill="#FFFFFE"/>
<path fill-rule="evenodd" clip-rule="evenodd" d="M34.7748 40.5874H35.4506C36.2191 40.5874 36.6912 40.1803 36.6912 39.5601C36.6912 38.8844 36.2191 38.5604 35.4786 38.5604C35.1174 38.5604 34.8862 38.5882 34.7748 38.6162V40.5874ZM33.6461 37.8385C34.0807 37.7551 34.7103 37.6998 35.3675 37.6998C36.2653 37.6998 36.8671 37.8477 37.2925 38.1997C37.6349 38.4865 37.8294 38.9213 37.8294 39.4584C37.8294 40.2634 37.2834 40.8094 36.6912 41.0134V41.0409C37.1444 41.2076 37.4131 41.6425 37.5612 42.244C37.7646 43.0218 37.9313 43.7437 38.0517 43.9843H36.8855C36.7927 43.7992 36.6354 43.2902 36.4687 42.5127C36.2836 41.698 35.9969 41.4391 35.3491 41.4204H34.7748V43.9843H33.6461V37.8385Z" fill="#FFFFFE"/>
<path fill-rule="evenodd" clip-rule="evenodd" d="M42.3102 41.2168H39.9592V43.0496H42.5878V43.9843H38.8208V37.746H42.4489V38.6807H39.9592V40.2912H42.3102V41.2168Z" fill="#FFFFFE"/>
</svg>
